solid Seilspanner
facet normal -0.0 -0.0 1.0
outer loop
vertex 40.625 7.5 5.0
vertex 9.375 10.0 5.0
vertex 9.375 7.5 5.0
endloop
endfacet
facet normal -0.0 -0.0 1.0
outer loop
vertex 9.375 10.0 5.0
vertex 40.625 7.5 5.0
vertex 40.625 10.0 5.0
endloop
endfacet
facet normal -0.38268343236509 0.923879532511287 -0.0
outer loop
vertex 6.63822856765378 3.5511112605664 5.0
vertex 7.0 3.70096189432334 -5.63993296509579e-15
vertex 6.63822856765378 3.5511112605664 -5.63993296509579e-15
endloop
endfacet
facet normal -0.5 0.866025403784438 0.0
outer loop
vertex 7.0 3.70096189432334 -5.63993296509579e-15
vertex 6.63822856765378 3.5511112605664 5.0
vertex 7.0 3.70096189432334 5.0
endloop
endfacet
facet normal -0.5 0.866025403784438 0.0
outer loop
vertex 7.0 3.70096189432334 5.0
vertex 7.31066017177982 3.93933982822018 -5.63993296509579e-15
vertex 7.0 3.70096189432334 -5.63993296509579e-15
endloop
endfacet
facet normal -0.707106781186548 0.707106781186547 0.0
outer loop
vertex 7.31066017177982 3.93933982822018 -5.63993296509579e-15
vertex 7.0 3.70096189432334 5.0
vertex 7.31066017177982 3.93933982822018 5.0
endloop
endfacet
facet normal -0.866025403784438 0.5 0.0
outer loop
vertex 7.54903810567666 4.25 5.0
vertex 7.31066017177982 3.93933982822018 -5.63993296509579e-15
vertex 7.31066017177982 3.93933982822018 5.0
endloop
endfacet
facet normal -0.707106781186548 0.707106781186547 0.0
outer loop
vertex 7.31066017177982 3.93933982822018 -5.63993296509579e-15
vertex 7.54903810567666 4.25 5.0
vertex 7.54903810567666 4.25 -5.63993296509579e-15
endloop
endfacet
facet normal -0.965925826289068 0.258819045102522 0.0
outer loop
vertex 7.6988887394336 4.61177143234622 5.0
vertex 7.54903810567666 4.25 -5.63993296509579e-15
vertex 7.54903810567666 4.25 5.0
endloop
endfacet
facet normal -0.866025403784438 0.5 0.0
outer loop
vertex 7.54903810567666 4.25 -5.63993296509579e-15
vertex 7.6988887394336 4.61177143234622 5.0
vertex 7.6988887394336 4.61177143234622 -5.63993296509579e-15
endloop
endfacet
facet normal -1.0 1.06933318747763e-16 0.0
outer loop
vertex 7.75 5.0 5.0
vertex 7.6988887394336 4.61177143234622 -5.63993296509579e-15
vertex 7.6988887394336 4.61177143234622 5.0
endloop
endfacet
facet normal -0.965925826289068 0.258819045102522 0.0
outer loop
vertex 7.6988887394336 4.61177143234622 -5.63993296509579e-15
vertex 7.75 5.0 5.0
vertex 7.75 5.0 -5.63993296509579e-15
endloop
endfacet
facet normal -0.965925826289068 -0.258819045102522 0.0
outer loop
vertex 7.6988887394336 5.38822856765378 5.0
vertex 7.75 5.0 -5.63993296509579e-15
vertex 7.75 5.0 5.0
endloop
endfacet
facet normal -1.0 1.06933318747763e-16 0.0
outer loop
vertex 7.75 5.0 -5.63993296509579e-15
vertex 7.6988887394336 5.38822856765378 5.0
vertex 7.6988887394336 5.38822856765378 -5.63993296509579e-15
endloop
endfacet
facet normal -0.866025403784438 -0.5 0.0
outer loop
vertex 7.54903810567666 5.75 5.0
vertex 7.6988887394336 5.38822856765378 -5.63993296509579e-15
vertex 7.6988887394336 5.38822856765378 5.0
endloop
endfacet
facet normal -0.965925826289068 -0.258819045102522 0.0
outer loop
vertex 7.6988887394336 5.38822856765378 -5.63993296509579e-15
vertex 7.54903810567666 5.75 5.0
vertex 7.54903810567666 5.75 -5.63993296509579e-15
endloop
endfacet
facet normal -0.707106781186547 -0.707106781186547 0.0
outer loop
vertex 7.31066017177982 6.06066017177982 5.0
vertex 7.54903810567666 5.75 -5.63993296509579e-15
vertex 7.54903810567666 5.75 5.0
endloop
endfacet
facet normal -0.866025403784438 -0.5 0.0
outer loop
vertex 7.54903810567666 5.75 -5.63993296509579e-15
vertex 7.31066017177982 6.06066017177982 5.0
vertex 7.31066017177982 6.06066017177982 -5.63993296509579e-15
endloop
endfacet
facet normal -0.707106781186547 -0.707106781186547 0.0
outer loop
vertex 7.31066017177982 6.06066017177982 5.0
vertex 7.0 6.29903810567666 -5.63993296509579e-15
vertex 7.31066017177982 6.06066017177982 -5.63993296509579e-15
endloop
endfacet
facet normal -0.5 -0.866025403784439 0.0
outer loop
vertex 7.0 6.29903810567666 -5.63993296509579e-15
vertex 7.31066017177982 6.06066017177982 5.0
vertex 7.0 6.29903810567666 5.0
endloop
endfacet
facet normal -0.5 -0.866025403784439 0.0
outer loop
vertex 7.0 6.29903810567666 5.0
vertex 6.63822856765378 6.4488887394336 -5.63993296509579e-15
vertex 7.0 6.29903810567666 -5.63993296509579e-15
endloop
endfacet
facet normal -0.258819045102521 -0.965925826289068 0.0
outer loop
vertex 6.63822856765378 6.4488887394336 -5.63993296509579e-15
vertex 7.0 6.29903810567666 5.0
vertex 6.63822856765378 6.4488887394336 5.0
endloop
endfacet
facet normal -0.258819045102521 -0.965925826289068 0.0
outer loop
vertex 6.63822856765378 6.4488887394336 5.0
vertex 6.25 6.5 -5.63993296509579e-15
vertex 6.63822856765378 6.4488887394336 -5.63993296509579e-15
endloop
endfacet
facet normal -0.130526192220052 -0.99144486137381 -0.0
outer loop
vertex 6.25 6.5 -5.63993296509579e-15
vertex 6.63822856765378 6.4488887394336 5.0
vertex 6.25 6.5 5.0
endloop
endfacet
facet normal 0.130526192220051 -0.99144486137381 -0.0
outer loop
vertex 6.25 6.5 5.0
vertex 5.86177143234622 6.4488887394336 -5.63993296509579e-15
vertex 6.25 6.5 -5.63993296509579e-15
endloop
endfacet
facet normal 0.258819045102522 -0.965925826289068 0.0
outer loop
vertex 5.86177143234622 6.4488887394336 -5.63993296509579e-15
vertex 6.25 6.5 5.0
vertex 5.86177143234622 6.4488887394336 5.0
endloop
endfacet
facet normal 0.258819045102522 -0.965925826289068 0.0
outer loop
vertex 5.86177143234622 6.4488887394336 5.0
vertex 5.5 6.29903810567666 -5.63993296509579e-15
vertex 5.86177143234622 6.4488887394336 -5.63993296509579e-15
endloop
endfacet
facet normal 0.500000000000001 -0.866025403784438 0.0
outer loop
vertex 5.5 6.29903810567666 -5.63993296509579e-15
vertex 5.86177143234622 6.4488887394336 5.0
vertex 5.5 6.29903810567666 5.0
endloop
endfacet
facet normal 0.500000000000001 -0.866025403784438 0.0
outer loop
vertex 5.5 6.29903810567666 5.0
vertex 5.18933982822018 6.06066017177982 -5.63993296509579e-15
vertex 5.5 6.29903810567666 -5.63993296509579e-15
endloop
endfacet
facet normal 0.707106781186547 -0.707106781186548 0.0
outer loop
vertex 5.18933982822018 6.06066017177982 -5.63993296509579e-15
vertex 5.5 6.29903810567666 5.0
vertex 5.18933982822018 6.06066017177982 5.0
endloop
endfacet
facet normal 0.707106781186547 -0.707106781186548 0.0
outer loop
vertex 5.18933982822018 6.06066017177982 -5.63993296509579e-15
vertex 4.95096189432334 5.75 5.0
vertex 4.95096189432334 5.75 -5.63993296509579e-15
endloop
endfacet
facet normal 0.866025403784439 -0.5 0.0
outer loop
vertex 4.95096189432334 5.75 5.0
vertex 5.18933982822018 6.06066017177982 -5.63993296509579e-15
vertex 5.18933982822018 6.06066017177982 5.0
endloop
endfacet
facet normal 0.866025403784439 -0.5 0.0
outer loop
vertex 4.95096189432334 5.75 -5.63993296509579e-15
vertex 4.8011112605664 5.38822856765378 5.0
vertex 4.8011112605664 5.38822856765378 -5.63993296509579e-15
endloop
endfacet
facet normal 0.965925826289068 -0.25881904510252 0.0
outer loop
vertex 4.8011112605664 5.38822856765378 5.0
vertex 4.95096189432334 5.75 -5.63993296509579e-15
vertex 4.95096189432334 5.75 5.0
endloop
endfacet
facet normal 0.965925826289068 -0.25881904510252 0.0
outer loop
vertex 4.8011112605664 5.38822856765378 -5.63993296509579e-15
vertex 4.75 5.0 5.0
vertex 4.75 5.0 -5.63993296509579e-15
endloop
endfacet
facet normal 1.0 6.59422132277871e-16 0.0
outer loop
vertex 4.75 5.0 5.0
vertex 4.8011112605664 5.38822856765378 -5.63993296509579e-15
vertex 4.8011112605664 5.38822856765378 5.0
endloop
endfacet
facet normal 1.0 6.59422132277871e-16 0.0
outer loop
vertex 4.75 5.0 -5.63993296509579e-15
vertex 4.8011112605664 4.61177143234622 5.0
vertex 4.8011112605664 4.61177143234622 -5.63993296509579e-15
endloop
endfacet
facet normal 0.965925826289068 0.258819045102521 0.0
outer loop
vertex 4.8011112605664 4.61177143234622 5.0
vertex 4.75 5.0 -5.63993296509579e-15
vertex 4.75 5.0 5.0
endloop
endfacet
facet normal 0.965925826289068 0.258819045102521 0.0
outer loop
vertex 4.8011112605664 4.61177143234622 -5.63993296509579e-15
vertex 4.95096189432334 4.25 5.0
vertex 4.95096189432334 4.25 -5.63993296509579e-15
endloop
endfacet
facet normal 0.866025403784438 0.5 0.0
outer loop
vertex 4.95096189432334 4.25 5.0
vertex 4.8011112605664 4.61177143234622 -5.63993296509579e-15
vertex 4.8011112605664 4.61177143234622 5.0
endloop
endfacet
facet normal 0.866025403784438 0.5 0.0
outer loop
vertex 4.95096189432334 4.25 -5.63993296509579e-15
vertex 5.18933982822018 3.93933982822018 5.0
vertex 5.18933982822018 3.93933982822018 -5.63993296509579e-15
endloop
endfacet
facet normal 0.707106781186547 0.707106781186548 0.0
outer loop
vertex 5.18933982822018 3.93933982822018 5.0
vertex 4.95096189432334 4.25 -5.63993296509579e-15
vertex 4.95096189432334 4.25 5.0
endloop
endfacet
facet normal 0.707106781186547 0.707106781186548 0.0
outer loop
vertex 5.18933982822018 3.93933982822018 5.0
vertex 5.5 3.70096189432334 -5.63993296509579e-15
vertex 5.18933982822018 3.93933982822018 -5.63993296509579e-15
endloop
endfacet
facet normal 0.499999999999999 0.866025403784439 0.0
outer loop
vertex 5.5 3.70096189432334 -5.63993296509579e-15
vertex 5.18933982822018 3.93933982822018 5.0
vertex 5.5 3.70096189432334 5.0
endloop
endfacet
facet normal 0.499999999999999 0.866025403784439 0.0
outer loop
vertex 5.5 3.70096189432334 5.0
vertex 5.86177143234622 3.5511112605664 -5.63993296509579e-15
vertex 5.5 3.70096189432334 -5.63993296509579e-15
endloop
endfacet
facet normal 0.382683432365088 0.923879532511287 -0.0
outer loop
vertex 5.86177143234622 3.5511112605664 -5.63993296509579e-15
vertex 5.5 3.70096189432334 5.0
vertex 5.86177143234622 3.5511112605664 5.0
endloop
endfacet
facet normal 0.25881904510252 0.965925826289069 0.0
outer loop
vertex 43.3617714323462 3.5511112605664 5.0
vertex 43.75 3.5 -2.11497486191092e-15
vertex 43.3617714323462 3.5511112605664 -2.11497486191092e-15
endloop
endfacet
facet normal 0.130526192220053 0.99144486137381 0.0
outer loop
vertex 43.75 3.5 -2.11497486191092e-15
vertex 43.3617714323462 3.5511112605664 5.0
vertex 43.75 3.5 5.0
endloop
endfacet
facet normal -0.130526192220051 0.99144486137381 -0.0
outer loop
vertex 43.75 3.5 5.0
vertex 44.1382285676538 3.5511112605664 -2.11497486191092e-15
vertex 43.75 3.5 -2.11497486191092e-15
endloop
endfacet
facet normal -0.258819045102522 0.965925826289068 0.0
outer loop
vertex 44.1382285676538 3.5511112605664 -2.11497486191092e-15
vertex 43.75 3.5 5.0
vertex 44.1382285676538 3.5511112605664 5.0
endloop
endfacet
facet normal -0.258819045102522 0.965925826289068 0.0
outer loop
vertex 44.1382285676538 3.5511112605664 5.0
vertex 44.5 3.70096189432334 -2.11497486191092e-15
vertex 44.1382285676538 3.5511112605664 -2.11497486191092e-15
endloop
endfacet
facet normal -0.500000000000003 0.866025403784437 0.0
outer loop
vertex 44.5 3.70096189432334 -2.11497486191092e-15
vertex 44.1382285676538 3.5511112605664 5.0
vertex 44.5 3.70096189432334 5.0
endloop
endfacet
facet normal -0.500000000000003 0.866025403784437 0.0
outer loop
vertex 44.5 3.70096189432334 5.0
vertex 44.8106601717798 3.93933982822018 -2.11497486191092e-15
vertex 44.5 3.70096189432334 -2.11497486191092e-15
endloop
endfacet
facet normal -0.707106781186548 0.707106781186547 0.0
outer loop
vertex 44.8106601717798 3.93933982822018 -2.11497486191092e-15
vertex 44.5 3.70096189432334 5.0
vertex 44.8106601717798 3.93933982822018 5.0
endloop
endfacet
facet normal -0.866025403784437 0.500000000000003 0.0
outer loop
vertex 45.0490381056767 4.25 5.0
vertex 44.8106601717798 3.93933982822018 -2.11497486191092e-15
vertex 44.8106601717798 3.93933982822018 5.0
endloop
endfacet
facet normal -0.707106781186548 0.707106781186547 0.0
outer loop
vertex 44.8106601717798 3.93933982822018 -2.11497486191092e-15
vertex 45.0490381056767 4.25 5.0
vertex 45.0490381056767 4.25 -2.11497486191092e-15
endloop
endfacet
facet normal -0.965925826289069 0.25881904510252 0.0
outer loop
vertex 45.1988887394336 4.61177143234622 5.0
vertex 45.0490381056767 4.25 -2.11497486191092e-15
vertex 45.0490381056767 4.25 5.0
endloop
endfacet
facet normal -0.866025403784437 0.500000000000003 0.0
outer loop
vertex 45.0490381056767 4.25 -2.11497486191092e-15
vertex 45.1988887394336 4.61177143234622 5.0
vertex 45.1988887394336 4.61177143234622 -2.11497486191092e-15
endloop
endfacet
facet normal -1.0 1.1584442864341e-16 0.0
outer loop
vertex 45.25 5.0 5.0
vertex 45.1988887394336 4.61177143234622 -2.11497486191092e-15
vertex 45.1988887394336 4.61177143234622 5.0
endloop
endfacet
facet normal -0.965925826289069 0.25881904510252 0.0
outer loop
vertex 45.1988887394336 4.61177143234622 -2.11497486191092e-15
vertex 45.25 5.0 5.0
vertex 45.25 5.0 -2.11497486191092e-15
endloop
endfacet
facet normal -0.965925826289069 -0.25881904510252 0.0
outer loop
vertex 45.1988887394336 5.38822856765378 5.0
vertex 45.25 5.0 -2.11497486191092e-15
vertex 45.25 5.0 5.0
endloop
endfacet
facet normal -1.0 1.1584442864341e-16 0.0
outer loop
vertex 45.25 5.0 -2.11497486191092e-15
vertex 45.1988887394336 5.38822856765378 5.0
vertex 45.1988887394336 5.38822856765378 -2.11497486191092e-15
endloop
endfacet
facet normal -0.866025403784437 -0.500000000000003 0.0
outer loop
vertex 45.0490381056767 5.75 5.0
vertex 45.1988887394336 5.38822856765378 -2.11497486191092e-15
vertex 45.1988887394336 5.38822856765378 5.0
endloop
endfacet
facet normal -0.965925826289069 -0.25881904510252 0.0
outer loop
vertex 45.1988887394336 5.38822856765378 -2.11497486191092e-15
vertex 45.0490381056767 5.75 5.0
vertex 45.0490381056767 5.75 -2.11497486191092e-15
endloop
endfacet
facet normal -0.707106781186547 -0.707106781186548 0.0
outer loop
vertex 44.8106601717798 6.06066017177982 5.0
vertex 45.0490381056767 5.75 -2.11497486191092e-15
vertex 45.0490381056767 5.75 5.0
endloop
endfacet
facet normal -0.866025403784437 -0.500000000000003 0.0
outer loop
vertex 45.0490381056767 5.75 -2.11497486191092e-15
vertex 44.8106601717798 6.06066017177982 5.0
vertex 44.8106601717798 6.06066017177982 -2.11497486191092e-15
endloop
endfacet
facet normal -0.707106781186547 -0.707106781186548 0.0
outer loop
vertex 44.8106601717798 6.06066017177982 5.0
vertex 44.5 6.29903810567666 -2.11497486191092e-15
vertex 44.8106601717798 6.06066017177982 -2.11497486191092e-15
endloop
endfacet
facet normal -0.5 -0.866025403784438 0.0
outer loop
vertex 44.5 6.29903810567666 -2.11497486191092e-15
vertex 44.8106601717798 6.06066017177982 5.0
vertex 44.5 6.29903810567666 5.0
endloop
endfacet
facet normal -0.5 -0.866025403784438 0.0
outer loop
vertex 44.5 6.29903810567666 5.0
vertex 44.1382285676538 6.4488887394336 -2.11497486191092e-15
vertex 44.5 6.29903810567666 -2.11497486191092e-15
endloop
endfacet
facet normal -0.258819045102521 -0.965925826289068 0.0
outer loop
vertex 44.1382285676538 6.4488887394336 -2.11497486191092e-15
vertex 44.5 6.29903810567666 5.0
vertex 44.1382285676538 6.4488887394336 5.0
endloop
endfacet
facet normal -0.258819045102521 -0.965925826289068 0.0
outer loop
vertex 44.1382285676538 6.4488887394336 5.0
vertex 43.75 6.5 -2.11497486191092e-15
vertex 44.1382285676538 6.4488887394336 -2.11497486191092e-15
endloop
endfacet
facet normal -0.130526192220053 -0.99144486137381 -0.0
outer loop
vertex 43.75 6.5 -2.11497486191092e-15
vertex 44.1382285676538 6.4488887394336 5.0
vertex 43.75 6.5 5.0
endloop
endfacet
facet normal 0.130526192220051 -0.99144486137381 -0.0
outer loop
vertex 43.75 6.5 5.0
vertex 43.3617714323462 6.4488887394336 -2.11497486191092e-15
vertex 43.75 6.5 -2.11497486191092e-15
endloop
endfacet
facet normal 0.258819045102523 -0.965925826289068 0.0
outer loop
vertex 43.3617714323462 6.4488887394336 -2.11497486191092e-15
vertex 43.75 6.5 5.0
vertex 43.3617714323462 6.4488887394336 5.0
endloop
endfacet
facet normal 0.258819045102523 -0.965925826289068 0.0
outer loop
vertex 43.3617714323462 6.4488887394336 5.0
vertex 43.0 6.29903810567666 -2.11497486191092e-15
vertex 43.3617714323462 6.4488887394336 -2.11497486191092e-15
endloop
endfacet
facet normal 0.499999999999999 -0.866025403784439 0.0
outer loop
vertex 43.0 6.29903810567666 -2.11497486191092e-15
vertex 43.3617714323462 6.4488887394336 5.0
vertex 43.0 6.29903810567666 5.0
endloop
endfacet
facet normal 0.499999999999999 -0.866025403784439 0.0
outer loop
vertex 43.0 6.29903810567666 5.0
vertex 42.6893398282202 6.06066017177982 -2.11497486191092e-15
vertex 43.0 6.29903810567666 -2.11497486191092e-15
endloop
endfacet
facet normal 0.707106781186549 -0.707106781186546 0.0
outer loop
vertex 42.6893398282202 6.06066017177982 -2.11497486191092e-15
vertex 43.0 6.29903810567666 5.0
vertex 42.6893398282202 6.06066017177982 5.0
endloop
endfacet
facet normal 0.707106781186549 -0.707106781186546 0.0
outer loop
vertex 42.6893398282202 6.06066017177982 -2.11497486191092e-15
vertex 42.4509618943233 5.75 5.0
vertex 42.4509618943233 5.75 -2.11497486191092e-15
endloop
endfacet
facet normal 0.86602540378444 -0.499999999999998 0.0
outer loop
vertex 42.4509618943233 5.75 5.0
vertex 42.6893398282202 6.06066017177982 -2.11497486191092e-15
vertex 42.6893398282202 6.06066017177982 5.0
endloop
endfacet
facet normal 0.86602540378444 -0.499999999999998 0.0
outer loop
vertex 42.4509618943233 5.75 -2.11497486191092e-15
vertex 42.3011112605664 5.38822856765378 5.0
vertex 42.3011112605664 5.38822856765378 -2.11497486191092e-15
endloop
endfacet
facet normal 0.965925826289069 -0.25881904510252 0.0
outer loop
vertex 42.3011112605664 5.38822856765378 5.0
vertex 42.4509618943233 5.75 -2.11497486191092e-15
vertex 42.4509618943233 5.75 5.0
endloop
endfacet
facet normal 0.965925826289069 -0.25881904510252 0.0
outer loop
vertex 42.3011112605664 5.38822856765378 -2.11497486191092e-15
vertex 42.25 5.0 5.0
vertex 42.25 5.0 -2.11497486191092e-15
endloop
endfacet
facet normal 1.0 -2.40599967182466e-16 0.0
outer loop
vertex 42.25 5.0 5.0
vertex 42.3011112605664 5.38822856765378 -2.11497486191092e-15
vertex 42.3011112605664 5.38822856765378 5.0
endloop
endfacet
facet normal 1.0 -2.40599967182466e-16 0.0
outer loop
vertex 42.25 5.0 -2.11497486191092e-15
vertex 42.3011112605664 4.61177143234622 5.0
vertex 42.3011112605664 4.61177143234622 -2.11497486191092e-15
endloop
endfacet
facet normal 0.965925826289069 0.25881904510252 0.0
outer loop
vertex 42.3011112605664 4.61177143234622 5.0
vertex 42.25 5.0 -2.11497486191092e-15
vertex 42.25 5.0 5.0
endloop
endfacet
facet normal 0.965925826289069 0.25881904510252 0.0
outer loop
vertex 42.3011112605664 4.61177143234622 -2.11497486191092e-15
vertex 42.4509618943233 4.25 5.0
vertex 42.4509618943233 4.25 -2.11497486191092e-15
endloop
endfacet
facet normal 0.866025403784437 0.500000000000003 0.0
outer loop
vertex 42.4509618943233 4.25 5.0
vertex 42.3011112605664 4.61177143234622 -2.11497486191092e-15
vertex 42.3011112605664 4.61177143234622 5.0
endloop
endfacet
facet normal 0.866025403784437 0.500000000000003 0.0
outer loop
vertex 42.4509618943233 4.25 -2.11497486191092e-15
vertex 42.6893398282202 3.93933982822018 5.0
vertex 42.6893398282202 3.93933982822018 -2.11497486191092e-15
endloop
endfacet
facet normal 0.707106781186547 0.707106781186548 0.0
outer loop
vertex 42.6893398282202 3.93933982822018 5.0
vertex 42.4509618943233 4.25 -2.11497486191092e-15
vertex 42.4509618943233 4.25 5.0
endloop
endfacet
facet normal 0.707106781186547 0.707106781186548 0.0
outer loop
vertex 42.6893398282202 3.93933982822018 5.0
vertex 43.0 3.70096189432334 -2.11497486191092e-15
vertex 42.6893398282202 3.93933982822018 -2.11497486191092e-15
endloop
endfacet
facet normal 0.499999999999999 0.866025403784439 0.0
outer loop
vertex 43.0 3.70096189432334 -2.11497486191092e-15
vertex 42.6893398282202 3.93933982822018 5.0
vertex 43.0 3.70096189432334 5.0
endloop
endfacet
facet normal 0.499999999999999 0.866025403784439 0.0
outer loop
vertex 43.0 3.70096189432334 5.0
vertex 43.3617714323462 3.5511112605664 -2.11497486191092e-15
vertex 43.0 3.70096189432334 -2.11497486191092e-15
endloop
endfacet
facet normal 0.25881904510252 0.965925826289069 0.0
outer loop
vertex 43.3617714323462 3.5511112605664 -2.11497486191092e-15
vertex 43.0 3.70096189432334 5.0
vertex 43.3617714323462 3.5511112605664 5.0
endloop
endfacet
facet normal 1.0 -0.0 -0.0
outer loop
vertex 5.86177143234622 3.5511112605664 -5.63993296509579e-15
vertex 5.86177143234622 2.0 5.0
vertex 5.86177143234622 2.0 -3.17444749654446e-15
endloop
endfacet
facet normal 1.0 -0.0 -0.0
outer loop
vertex 5.86177143234622 2.0 5.0
vertex 5.86177143234622 3.5511112605664 -5.63993296509579e-15
vertex 5.86177143234622 3.5511112605664 5.0
endloop
endfacet
facet normal 0.0 -1.0 0.0
outer loop
vertex 48.0 0.0 5.0
vertex 8.63822856765378 0.0 0.0
vertex 48.0 0.0 0.0
endloop
endfacet
facet normal 0.0 -1.0 0.0
outer loop
vertex 8.63822856765378 0.0 0.0
vertex 48.0 0.0 5.0
vertex 8.63822856765378 0.0 5.0
endloop
endfacet
facet normal 0.0 -1.0 0.0
outer loop
vertex 8.63822856765378 0.0 5.0
vertex 48.0 0.0 5.0
vertex 43.75 0.0 5.0
endloop
endfacet
facet normal 0.0 -1.0 0.0
outer loop
vertex 8.63822856765378 0.0 5.0
vertex 43.75 0.0 5.0
vertex 40.625 0.0 5.0
endloop
endfacet
facet normal 0.0 -1.0 0.0
outer loop
vertex 8.63822856765378 0.0 5.0
vertex 40.625 0.0 5.0
vertex 9.375 0.0 5.0
endloop
endfacet
facet normal 1.0 -0.0 -0.0
outer loop
vertex 50.0 8.0 0.0
vertex 50.0 2.0 5.0
vertex 50.0 2.0 0.0
endloop
endfacet
facet normal 1.0 -0.0 -0.0
outer loop
vertex 50.0 2.0 5.0
vertex 50.0 8.0 0.0
vertex 50.0 8.0 5.0
endloop
endfacet
facet normal -1.0 0.0 0.0
outer loop
vertex 6.63822856765378 3.5511112605664 5.0
vertex 6.63822856765378 2.0 -3.17444749654446e-15
vertex 6.63822856765378 2.0 5.0
endloop
endfacet
facet normal -1.0 0.0 0.0
outer loop
vertex 6.63822856765378 2.0 -3.17444749654446e-15
vertex 6.63822856765378 3.5511112605664 5.0
vertex 6.63822856765378 3.5511112605664 -5.63993296509579e-15
endloop
endfacet
facet normal 0.0 -1.0 0.0
outer loop
vertex 3.86177143234622 0.0 5.0
vertex 2.0 0.0 0.0
vertex 3.86177143234622 0.0 0.0
endloop
endfacet
facet normal 0.0 -1.0 0.0
outer loop
vertex 2.0 0.0 0.0
vertex 3.86177143234622 0.0 5.0
vertex 2.0 0.0 5.0
endloop
endfacet
facet normal -0.866025403784439 -0.5 -6.54367216131384e-19
outer loop
vertex 6.9061777600849 1.0 5.0
vertex 7.22401500528069 0.585786437626905 -9.29774145217214e-16
vertex 7.22401500528069 0.585786437626905 5.0
endloop
endfacet
facet normal -0.707106781186548 -0.707106781186547 -8.58986352244947e-19
outer loop
vertex 7.22401500528069 0.585786437626905 -9.29774145217214e-16
vertex 6.9061777600849 1.0 5.0
vertex 6.9061777600849 1.0 -1.58722374827223e-15
endloop
endfacet
facet normal -0.965925826289068 -0.258819045102521 -7.0328223278919e-19
outer loop
vertex 6.70637691507564 1.48236190979496 5.0
vertex 6.9061777600849 1.0 -1.58722374827223e-15
vertex 6.9061777600849 1.0 5.0
endloop
endfacet
facet normal -0.866025403784439 -0.5 -6.54367216131384e-19
outer loop
vertex 6.9061777600849 1.0 -1.58722374827223e-15
vertex 6.70637691507564 1.48236190979496 5.0
vertex 6.70637691507564 1.48236190979496 -2.35284002676074e-15
endloop
endfacet
facet normal -0.99144486137381 -0.130526192220052 -7.6731577255169e-19
outer loop
vertex 6.63822856765378 2.0 5.0
vertex 6.70637691507564 1.48236190979496 -2.35284002676074e-15
vertex 6.70637691507564 1.48236190979496 5.0
endloop
endfacet
facet normal -0.965925826289068 -0.258819045102521 -7.0328223278919e-19
outer loop
vertex 6.70637691507564 1.48236190979496 -2.35284002676074e-15
vertex 6.63822856765378 2.0 5.0
vertex 6.63822856765378 2.0 -3.17444749654446e-15
endloop
endfacet
facet normal 0.99144486137381 -0.130526192220052 2.1912231969705e-18
outer loop
vertex 50.0 2.0 0.0
vertex 49.9318516525781 1.48236190979496 5.0
vertex 49.9318516525781 1.48236190979496 0.0
endloop
endfacet
facet normal 0.965925826289068 -0.258819045102521 7.58484232725827e-18
outer loop
vertex 49.9318516525781 1.48236190979496 5.0
vertex 50.0 2.0 0.0
vertex 50.0 2.0 5.0
endloop
endfacet
facet normal -0.130526192220052 -0.99144486137381 0.0
outer loop
vertex 2.0 0.0 5.0
vertex 1.48236190979496 0.0681483474218635 0.0
vertex 2.0 0.0 0.0
endloop
endfacet
facet normal -0.258819045102521 -0.965925826289068 0.0
outer loop
vertex 1.48236190979496 0.0681483474218635 0.0
vertex 2.0 0.0 5.0
vertex 1.48236190979496 0.0681483474218635 5.0
endloop
endfacet
facet normal -0.866025403784438 -0.5 0.0
outer loop
vertex 0.267949192431123 1.0 5.0
vertex 0.585786437626905 0.585786437626905 0.0
vertex 0.585786437626905 0.585786437626905 5.0
endloop
endfacet
facet normal -0.707106781186547 -0.707106781186548 0.0
outer loop
vertex 0.585786437626905 0.585786437626905 0.0
vertex 0.267949192431123 1.0 5.0
vertex 0.267949192431123 1.0 0.0
endloop
endfacet
facet normal -0.99144486137381 -0.130526192220052 0.0
outer loop
vertex 0.0 2.0 5.0
vertex 0.0681483474218635 1.48236190979496 0.0
vertex 0.0681483474218635 1.48236190979496 5.0
endloop
endfacet
facet normal -0.965925826289068 -0.258819045102521 0.0
outer loop
vertex 0.0681483474218635 1.48236190979496 0.0
vertex 0.0 2.0 5.0
vertex 0.0 2.0 0.0
endloop
endfacet
facet normal 0.965925826289068 -0.258819045102521 2.05054358093926e-19
outer loop
vertex 5.79362308492435 1.48236190979496 -2.35284002676074e-15
vertex 5.5938222399151 1.0 5.0
vertex 5.5938222399151 1.0 -1.58722374827223e-15
endloop
endfacet
facet normal 0.866025403784439 -0.5 -3.74852278099825e-19
outer loop
vertex 5.5938222399151 1.0 5.0
vertex 5.79362308492435 1.48236190979496 -2.35284002676074e-15
vertex 5.79362308492435 1.48236190979496 5.0
endloop
endfacet
facet normal 0.99144486137381 -0.130526192220053 -3.69080402282197e-20
outer loop
vertex 5.86177143234622 2.0 -3.17444749654446e-15
vertex 5.79362308492435 1.48236190979496 5.0
vertex 5.79362308492435 1.48236190979496 -2.35284002676074e-15
endloop
endfacet
facet normal 0.965925826289068 -0.258819045102521 2.05054358093926e-19
outer loop
vertex 5.79362308492435 1.48236190979496 5.0
vertex 5.86177143234622 2.0 -3.17444749654446e-15
vertex 5.86177143234622 2.0 5.0
endloop
endfacet
facet normal 0.258819045102521 -0.965925826289068 -1.1183380861007e-19
outer loop
vertex 4.37940952255126 0.0681483474218635 5.0
vertex 3.86177143234622 0.0 0.0
vertex 4.37940952255126 0.0681483474218635 -1.08166675433489e-16
endloop
endfacet
facet normal 0.130526192220052 -0.99144486137381 0.0
outer loop
vertex 3.86177143234622 0.0 0.0
vertex 4.37940952255126 0.0681483474218635 5.0
vertex 3.86177143234622 0.0 5.0
endloop
endfacet
facet normal 0.707106781186548 -0.707106781186547 -1.11945280916994e-18
outer loop
vertex 5.27598499471931 0.585786437626905 5.0
vertex 4.86177143234622 0.267949192431123 -4.25295321557044e-16
vertex 5.27598499471931 0.585786437626905 -9.29774145217214e-16
endloop
endfacet
facet normal 0.5 -0.866025403784438 -6.32766722460035e-19
outer loop
vertex 4.86177143234622 0.267949192431123 -4.25295321557044e-16
vertex 5.27598499471931 0.585786437626905 5.0
vertex 4.86177143234622 0.267949192431123 5.0
endloop
endfacet
facet normal 0.866025403784438 -0.500000000000001 -2.06504428972249e-16
outer loop
vertex 49.7320508075689 1.0 0.0
vertex 49.4142135623731 0.585786437626905 5.0
vertex 49.4142135623731 0.585786437626905 0.0
endloop
endfacet
facet normal 0.707106781186546 -0.707106781186549 -3.79782732010189e-16
outer loop
vertex 49.4142135623731 0.585786437626905 5.0
vertex 49.7320508075689 1.0 0.0
vertex 49.7320508075689 1.0 5.0
endloop
endfacet
facet normal -0.130526192220052 -0.99144486137381 0.0
outer loop
vertex 8.63822856765378 0.0 0.0
vertex 8.12059047744874 0.0681483474218635 5.0
vertex 8.12059047744874 0.0681483474218635 -1.08166675433488e-16
endloop
endfacet
facet normal -0.258819045102521 -0.965925826289068 -1.11833808610072e-19
outer loop
vertex 8.12059047744874 0.0681483474218635 5.0
vertex 8.63822856765378 0.0 0.0
vertex 8.63822856765378 0.0 5.0
endloop
endfacet
facet normal 0.499999999999999 -0.866025403784439 -1.6679852629846e-16
outer loop
vertex 49.0 0.267949192431123 5.0
vertex 48.517638090205 0.0681483474218635 0.0
vertex 49.0 0.267949192431123 0.0
endloop
endfacet
facet normal 0.258819045102521 -0.965925826289068 -3.72038747885845e-17
outer loop
vertex 48.517638090205 0.0681483474218635 0.0
vertex 49.0 0.267949192431123 5.0
vertex 48.517638090205 0.0681483474218635 5.0
endloop
endfacet
facet normal -0.5 -0.866025403784439 -6.32766722460041e-19
outer loop
vertex 7.63822856765378 0.267949192431123 -4.25295321557044e-16
vertex 7.22401500528069 0.585786437626905 5.0
vertex 7.22401500528069 0.585786437626905 -9.29774145217214e-16
endloop
endfacet
facet normal -0.707106781186548 -0.707106781186547 -8.58986352244947e-19
outer loop
vertex 7.22401500528069 0.585786437626905 5.0
vertex 7.63822856765378 0.267949192431123 -4.25295321557044e-16
vertex 7.63822856765378 0.267949192431123 5.0
endloop
endfacet
facet normal 0.965925826289068 -0.258819045102521 7.58484232725827e-18
outer loop
vertex 49.9318516525781 1.48236190979496 0.0
vertex 49.7320508075689 1.0 5.0
vertex 49.7320508075689 1.0 0.0
endloop
endfacet
facet normal 0.866025403784438 -0.500000000000001 -2.06504428972249e-16
outer loop
vertex 49.7320508075689 1.0 5.0
vertex 49.9318516525781 1.48236190979496 0.0
vertex 49.9318516525781 1.48236190979496 5.0
endloop
endfacet
facet normal -0.258819045102521 -0.965925826289068 -1.11833808610072e-19
outer loop
vertex 8.12059047744874 0.0681483474218635 -1.08166675433488e-16
vertex 7.63822856765378 0.267949192431123 5.0
vertex 7.63822856765378 0.267949192431123 -4.25295321557044e-16
endloop
endfacet
facet normal -0.5 -0.866025403784439 -6.32766722460041e-19
outer loop
vertex 7.63822856765378 0.267949192431123 5.0
vertex 8.12059047744874 0.0681483474218635 -1.08166675433488e-16
vertex 8.12059047744874 0.0681483474218635 5.0
endloop
endfacet
facet normal 0.707106781186546 -0.707106781186549 -3.79782732010189e-16
outer loop
vertex 49.4142135623731 0.585786437626905 5.0
vertex 49.0 0.267949192431123 0.0
vertex 49.4142135623731 0.585786437626905 0.0
endloop
endfacet
facet normal 0.499999999999999 -0.866025403784439 -1.6679852629846e-16
outer loop
vertex 49.0 0.267949192431123 0.0
vertex 49.4142135623731 0.585786437626905 5.0
vertex 49.0 0.267949192431123 5.0
endloop
endfacet
facet normal -0.965925826289068 -0.258819045102521 0.0
outer loop
vertex 0.0681483474218635 1.48236190979496 5.0
vertex 0.267949192431123 1.0 0.0
vertex 0.267949192431123 1.0 5.0
endloop
endfacet
facet normal -0.866025403784438 -0.5 0.0
outer loop
vertex 0.267949192431123 1.0 0.0
vertex 0.0681483474218635 1.48236190979496 5.0
vertex 0.0681483474218635 1.48236190979496 0.0
endloop
endfacet
facet normal -0.5 -0.866025403784439 0.0
outer loop
vertex 1.0 0.267949192431123 5.0
vertex 0.585786437626905 0.585786437626905 0.0
vertex 1.0 0.267949192431123 0.0
endloop
endfacet
facet normal -0.707106781186547 -0.707106781186548 0.0
outer loop
vertex 0.585786437626905 0.585786437626905 0.0
vertex 1.0 0.267949192431123 5.0
vertex 0.585786437626905 0.585786437626905 5.0
endloop
endfacet
facet normal -0.258819045102521 -0.965925826289068 0.0
outer loop
vertex 1.48236190979496 0.0681483474218635 5.0
vertex 1.0 0.267949192431123 0.0
vertex 1.48236190979496 0.0681483474218635 0.0
endloop
endfacet
facet normal -0.5 -0.866025403784439 0.0
outer loop
vertex 1.0 0.267949192431123 0.0
vertex 1.48236190979496 0.0681483474218635 5.0
vertex 1.0 0.267949192431123 5.0
endloop
endfacet
facet normal 0.866025403784439 -0.499999999999999 -3.74852278099824e-19
outer loop
vertex 5.5938222399151 1.0 -1.58722374827223e-15
vertex 5.27598499471931 0.585786437626905 5.0
vertex 5.27598499471931 0.585786437626905 -9.29774145217214e-16
endloop
endfacet
facet normal 0.707106781186548 -0.707106781186547 -1.11945280916994e-18
outer loop
vertex 5.27598499471931 0.585786437626905 5.0
vertex 5.5938222399151 1.0 -1.58722374827223e-15
vertex 5.5938222399151 1.0 5.0
endloop
endfacet
facet normal 0.5 -0.866025403784438 -6.32766722460035e-19
outer loop
vertex 4.86177143234622 0.267949192431123 5.0
vertex 4.37940952255126 0.0681483474218635 -1.08166675433489e-16
vertex 4.86177143234622 0.267949192431123 -4.25295321557044e-16
endloop
endfacet
facet normal 0.258819045102521 -0.965925826289068 -1.1183380861007e-19
outer loop
vertex 4.37940952255126 0.0681483474218635 -1.08166675433489e-16
vertex 4.86177143234622 0.267949192431123 5.0
vertex 4.37940952255126 0.0681483474218635 5.0
endloop
endfacet
facet normal 0.258819045102521 -0.965925826289068 -3.72038747885845e-17
outer loop
vertex 48.517638090205 0.0681483474218635 5.0
vertex 48.0 0.0 0.0
vertex 48.517638090205 0.0681483474218635 0.0
endloop
endfacet
facet normal 0.130526192220051 -0.99144486137381 -7.37711809646734e-17
outer loop
vertex 48.0 0.0 0.0
vertex 48.517638090205 0.0681483474218635 5.0
vertex 48.0 0.0 5.0
endloop
endfacet
facet normal -1.0 0.0 0.0
outer loop
vertex 0.0 8.0 5.0
vertex 0.0 2.0 0.0
vertex 0.0 2.0 5.0
endloop
endfacet
facet normal -1.0 0.0 0.0
outer loop
vertex 0.0 2.0 0.0
vertex 0.0 8.0 5.0
vertex 0.0 8.0 0.0
endloop
endfacet
facet normal -0.0 1.0 -0.0
outer loop
vertex 2.0 10.0 5.0
vertex 48.0 10.0 0.0
vertex 2.0 10.0 0.0
endloop
endfacet
facet normal -0.0 1.0 -0.0
outer loop
vertex 48.0 10.0 0.0
vertex 2.0 10.0 5.0
vertex 48.0 10.0 5.0
endloop
endfacet
facet normal -0.0 1.0 -0.0
outer loop
vertex 48.0 10.0 5.0
vertex 2.0 10.0 5.0
vertex 6.25 10.0 5.0
endloop
endfacet
facet normal -0.0 1.0 -0.0
outer loop
vertex 48.0 10.0 5.0
vertex 6.25 10.0 5.0
vertex 9.375 10.0 5.0
endloop
endfacet
facet normal -0.0 1.0 -0.0
outer loop
vertex 48.0 10.0 5.0
vertex 9.375 10.0 5.0
vertex 40.625 10.0 5.0
endloop
endfacet
facet normal -0.0 1.0 -0.0
outer loop
vertex 48.0 10.0 5.0
vertex 40.625 10.0 5.0
vertex 43.75 10.0 5.0
endloop
endfacet
facet normal -0.965925826289068 0.258819045102521 0.0
outer loop
vertex 0.0681483474218635 8.51763809020504 5.0
vertex 0.0 8.0 0.0
vertex 0.0 8.0 5.0
endloop
endfacet
facet normal -0.99144486137381 0.130526192220052 0.0
outer loop
vertex 0.0 8.0 0.0
vertex 0.0681483474218635 8.51763809020504 5.0
vertex 0.0681483474218635 8.51763809020504 0.0
endloop
endfacet
facet normal -0.866025403784439 0.5 -6.71671685501963e-18
outer loop
vertex 0.267949192431123 9.0 5.0
vertex 0.0681483474218635 8.51763809020504 0.0
vertex 0.0681483474218635 8.51763809020504 5.0
endloop
endfacet
facet normal -0.965925826289068 0.258819045102521 0.0
outer loop
vertex 0.0681483474218635 8.51763809020504 0.0
vertex 0.267949192431123 9.0 5.0
vertex 0.267949192431123 9.0 0.0
endloop
endfacet
facet normal -0.5 0.866025403784439 -3.36001453312634e-17
outer loop
vertex 1.0 9.73205080756888 5.0
vertex 1.48236190979496 9.93185165257814 0.0
vertex 1.0 9.73205080756888 0.0
endloop
endfacet
facet normal -0.25881904510252 0.965925826289068 -2.53832189489941e-17
outer loop
vertex 1.48236190979496 9.93185165257814 0.0
vertex 1.0 9.73205080756888 5.0
vertex 1.48236190979496 9.93185165257814 5.0
endloop
endfacet
facet normal 0.965925826289068 0.258819045102521 0.0
outer loop
vertex 49.9318516525781 8.51763809020504 0.0
vertex 50.0 8.0 5.0
vertex 50.0 8.0 0.0
endloop
endfacet
facet normal 0.99144486137381 0.130526192220051 -0.0
outer loop
vertex 50.0 8.0 5.0
vertex 49.9318516525781 8.51763809020504 0.0
vertex 49.9318516525781 8.51763809020504 5.0
endloop
endfacet
facet normal -0.707106781186548 0.707106781186547 -2.30374575476738e-17
outer loop
vertex 0.585786437626905 9.4142135623731 5.0
vertex 0.267949192431123 9.0 0.0
vertex 0.267949192431123 9.0 5.0
endloop
endfacet
facet normal -0.866025403784439 0.5 -6.71671685501963e-18
outer loop
vertex 0.267949192431123 9.0 0.0
vertex 0.585786437626905 9.4142135623731 5.0
vertex 0.585786437626905 9.4142135623731 0.0
endloop
endfacet
facet normal 0.707106781186547 0.707106781186548 0.0
outer loop
vertex 49.4142135623731 9.4142135623731 0.0
vertex 49.7320508075689 9.0 5.0
vertex 49.7320508075689 9.0 0.0
endloop
endfacet
facet normal 0.866025403784439 0.499999999999999 0.0
outer loop
vertex 49.7320508075689 9.0 5.0
vertex 49.4142135623731 9.4142135623731 0.0
vertex 49.4142135623731 9.4142135623731 5.0
endloop
endfacet
facet normal 0.258819045102521 0.965925826289068 0.0
outer loop
vertex 48.517638090205 9.93185165257814 5.0
vertex 49.0 9.73205080756888 0.0
vertex 48.517638090205 9.93185165257814 0.0
endloop
endfacet
facet normal 0.499999999999997 0.86602540378444 0.0
outer loop
vertex 49.0 9.73205080756888 0.0
vertex 48.517638090205 9.93185165257814 5.0
vertex 49.0 9.73205080756888 5.0
endloop
endfacet
facet normal -0.707106781186548 0.707106781186547 -2.30374575476738e-17
outer loop
vertex 0.585786437626905 9.4142135623731 5.0
vertex 1.0 9.73205080756888 0.0
vertex 0.585786437626905 9.4142135623731 0.0
endloop
endfacet
facet normal -0.5 0.866025403784439 -3.36001453312634e-17
outer loop
vertex 1.0 9.73205080756888 0.0
vertex 0.585786437626905 9.4142135623731 5.0
vertex 1.0 9.73205080756888 5.0
endloop
endfacet
facet normal -0.25881904510252 0.965925826289068 -2.53832189489941e-17
outer loop
vertex 1.48236190979496 9.93185165257814 5.0
vertex 2.0 10.0 0.0
vertex 1.48236190979496 9.93185165257814 0.0
endloop
endfacet
facet normal -0.130526192220051 0.99144486137381 -1.6068970111117e-17
outer loop
vertex 2.0 10.0 0.0
vertex 1.48236190979496 9.93185165257814 5.0
vertex 2.0 10.0 5.0
endloop
endfacet
facet normal 0.130526192220052 0.99144486137381 -0.0
outer loop
vertex 48.0 10.0 5.0
vertex 48.517638090205 9.93185165257814 0.0
vertex 48.0 10.0 0.0
endloop
endfacet
facet normal 0.258819045102521 0.965925826289068 0.0
outer loop
vertex 48.517638090205 9.93185165257814 0.0
vertex 48.0 10.0 5.0
vertex 48.517638090205 9.93185165257814 5.0
endloop
endfacet
facet normal 0.499999999999997 0.86602540378444 0.0
outer loop
vertex 49.0 9.73205080756888 5.0
vertex 49.4142135623731 9.4142135623731 0.0
vertex 49.0 9.73205080756888 0.0
endloop
endfacet
facet normal 0.707106781186547 0.707106781186548 0.0
outer loop
vertex 49.4142135623731 9.4142135623731 0.0
vertex 49.0 9.73205080756888 5.0
vertex 49.4142135623731 9.4142135623731 5.0
endloop
endfacet
facet normal 0.866025403784439 0.499999999999999 0.0
outer loop
vertex 49.7320508075689 9.0 0.0
vertex 49.9318516525781 8.51763809020504 5.0
vertex 49.9318516525781 8.51763809020504 0.0
endloop
endfacet
facet normal 0.965925826289068 0.258819045102521 0.0
outer loop
vertex 49.9318516525781 8.51763809020504 5.0
vertex 49.7320508075689 9.0 0.0
vertex 49.7320508075689 9.0 5.0
endloop
endfacet
facet normal -0.0 -0.0 1.0
outer loop
vertex 48.0 0.0 5.0
vertex 43.75 3.5 5.0
vertex 43.75 0.0 5.0
endloop
endfacet
facet normal -0.0 -0.0 1.0
outer loop
vertex 43.75 3.5 5.0
vertex 48.0 0.0 5.0
vertex 44.1382285676538 3.5511112605664 5.0
endloop
endfacet
facet normal -0.0 -0.0 1.0
outer loop
vertex 44.1382285676538 3.5511112605664 5.0
vertex 48.0 0.0 5.0
vertex 44.5 3.70096189432334 5.0
endloop
endfacet
facet normal -0.0 -0.0 1.0
outer loop
vertex 44.5 3.70096189432334 5.0
vertex 48.0 0.0 5.0
vertex 44.8106601717798 3.93933982822018 5.0
endloop
endfacet
facet normal -0.0 -0.0 1.0
outer loop
vertex 44.8106601717798 3.93933982822018 5.0
vertex 48.0 0.0 5.0
vertex 45.0490381056767 4.25 5.0
endloop
endfacet
facet normal -0.0 -0.0 1.0
outer loop
vertex 45.0490381056767 4.25 5.0
vertex 48.0 0.0 5.0
vertex 45.1988887394336 4.61177143234622 5.0
endloop
endfacet
facet normal -0.0 -0.0 1.0
outer loop
vertex 45.1988887394336 4.61177143234622 5.0
vertex 48.0 0.0 5.0
vertex 45.25 5.0 5.0
endloop
endfacet
facet normal -0.0 -0.0 1.0
outer loop
vertex 44.1382285676538 6.4488887394336 5.0
vertex 43.75 10.0 5.0
vertex 43.75 6.5 5.0
endloop
endfacet
facet normal -0.0 -0.0 1.0
outer loop
vertex 43.75 10.0 5.0
vertex 44.1382285676538 6.4488887394336 5.0
vertex 48.0 10.0 5.0
endloop
endfacet
facet normal -0.0 -0.0 1.0
outer loop
vertex 48.0 10.0 5.0
vertex 44.1382285676538 6.4488887394336 5.0
vertex 44.5 6.29903810567666 5.0
endloop
endfacet
facet normal -0.0 -0.0 1.0
outer loop
vertex 48.0 10.0 5.0
vertex 44.5 6.29903810567666 5.0
vertex 44.8106601717798 6.06066017177982 5.0
endloop
endfacet
facet normal -0.0 -0.0 1.0
outer loop
vertex 48.0 10.0 5.0
vertex 44.8106601717798 6.06066017177982 5.0
vertex 45.0490381056767 5.75 5.0
endloop
endfacet
facet normal -0.0 -0.0 1.0
outer loop
vertex 48.0 10.0 5.0
vertex 45.0490381056767 5.75 5.0
vertex 45.1988887394336 5.38822856765378 5.0
endloop
endfacet
facet normal -0.0 -0.0 1.0
outer loop
vertex 48.0 10.0 5.0
vertex 45.1988887394336 5.38822856765378 5.0
vertex 45.25 5.0 5.0
endloop
endfacet
facet normal -0.0 -0.0 1.0
outer loop
vertex 48.0 10.0 5.0
vertex 45.25 5.0 5.0
vertex 48.0 0.0 5.0
endloop
endfacet
facet normal -0.0 -0.0 1.0
outer loop
vertex 48.0 10.0 5.0
vertex 48.0 0.0 5.0
vertex 48.517638090205 0.0681483474218635 5.0
endloop
endfacet
facet normal -0.0 -0.0 1.0
outer loop
vertex 48.0 10.0 5.0
vertex 48.517638090205 0.0681483474218635 5.0
vertex 48.517638090205 9.93185165257814 5.0
endloop
endfacet
facet normal -0.0 -0.0 1.0
outer loop
vertex 48.517638090205 9.93185165257814 5.0
vertex 48.517638090205 0.0681483474218635 5.0
vertex 49.0 0.267949192431123 5.0
endloop
endfacet
facet normal -0.0 -0.0 1.0
outer loop
vertex 48.517638090205 9.93185165257814 5.0
vertex 49.0 0.267949192431123 5.0
vertex 49.0 9.73205080756888 5.0
endloop
endfacet
facet normal -0.0 -0.0 1.0
outer loop
vertex 49.0 9.73205080756888 5.0
vertex 49.0 0.267949192431123 5.0
vertex 49.4142135623731 0.585786437626905 5.0
endloop
endfacet
facet normal -0.0 -0.0 1.0
outer loop
vertex 49.0 9.73205080756888 5.0
vertex 49.4142135623731 0.585786437626905 5.0
vertex 49.4142135623731 9.4142135623731 5.0
endloop
endfacet
facet normal -0.0 -0.0 1.0
outer loop
vertex 49.4142135623731 9.4142135623731 5.0
vertex 49.4142135623731 0.585786437626905 5.0
vertex 49.7320508075689 1.0 5.0
endloop
endfacet
facet normal -0.0 -0.0 1.0
outer loop
vertex 49.4142135623731 9.4142135623731 5.0
vertex 49.7320508075689 1.0 5.0
vertex 49.7320508075689 9.0 5.0
endloop
endfacet
facet normal -0.0 -0.0 1.0
outer loop
vertex 49.7320508075689 9.0 5.0
vertex 49.7320508075689 1.0 5.0
vertex 49.9318516525781 1.48236190979496 5.0
endloop
endfacet
facet normal -0.0 -0.0 1.0
outer loop
vertex 49.7320508075689 9.0 5.0
vertex 49.9318516525781 1.48236190979496 5.0
vertex 49.9318516525781 8.51763809020504 5.0
endloop
endfacet
facet normal -0.0 -0.0 1.0
outer loop
vertex 49.9318516525781 8.51763809020504 5.0
vertex 49.9318516525781 1.48236190979496 5.0
vertex 50.0 2.0 5.0
endloop
endfacet
facet normal -0.0 -0.0 1.0
outer loop
vertex 49.9318516525781 8.51763809020504 5.0
vertex 50.0 2.0 5.0
vertex 50.0 8.0 5.0
endloop
endfacet
facet normal 5.65954976936847e-17 -1.39053271015279e-16 -1.0
outer loop
vertex 0.0681483474218635 8.51763809020504 0.0
vertex 0.0 2.0 0.0
vertex 0.0 8.0 0.0
endloop
endfacet
facet normal 5.65954976936847e-17 -1.39053271015279e-16 -1.0
outer loop
vertex 0.0 2.0 0.0
vertex 0.0681483474218635 8.51763809020504 0.0
vertex 0.0681483474218635 1.48236190979496 0.0
endloop
endfacet
facet normal 5.65954976936847e-17 -1.39053271015279e-16 -1.0
outer loop
vertex 0.0681483474218635 1.48236190979496 0.0
vertex 0.0681483474218635 8.51763809020504 0.0
vertex 0.267949192431123 9.0 0.0
endloop
endfacet
facet normal 5.65954976936847e-17 -1.39053271015279e-16 -1.0
outer loop
vertex 0.0681483474218635 1.48236190979496 0.0
vertex 0.267949192431123 9.0 0.0
vertex 0.267949192431123 1.0 0.0
endloop
endfacet
facet normal 5.65954976936847e-17 -1.39053271015279e-16 -1.0
outer loop
vertex 0.267949192431123 1.0 0.0
vertex 0.267949192431123 9.0 0.0
vertex 0.585786437626905 9.4142135623731 0.0
endloop
endfacet
facet normal 5.65954976936847e-17 -1.39053271015279e-16 -1.0
outer loop
vertex 0.267949192431123 1.0 0.0
vertex 0.585786437626905 9.4142135623731 0.0
vertex 0.585786437626905 0.585786437626905 0.0
endloop
endfacet
facet normal 5.65954976936847e-17 -1.39053271015279e-16 -1.0
outer loop
vertex 0.585786437626905 0.585786437626905 0.0
vertex 0.585786437626905 9.4142135623731 0.0
vertex 1.0 9.73205080756888 0.0
endloop
endfacet
facet normal 5.65954976936847e-17 -1.39053271015279e-16 -1.0
outer loop
vertex 0.585786437626905 0.585786437626905 0.0
vertex 1.0 9.73205080756888 0.0
vertex 1.0 0.267949192431123 0.0
endloop
endfacet
facet normal 5.65954976936847e-17 -1.39053271015279e-16 -1.0
outer loop
vertex 1.0 0.267949192431123 0.0
vertex 1.0 9.73205080756888 0.0
vertex 1.48236190979496 9.93185165257814 0.0
endloop
endfacet
facet normal 5.65954976936847e-17 -1.39053271015279e-16 -1.0
outer loop
vertex 1.0 0.267949192431123 0.0
vertex 1.48236190979496 9.93185165257814 0.0
vertex 1.48236190979496 0.0681483474218635 0.0
endloop
endfacet
facet normal 5.65954976936847e-17 -1.39053271015279e-16 -1.0
outer loop
vertex 1.48236190979496 0.0681483474218635 0.0
vertex 1.48236190979496 9.93185165257814 0.0
vertex 2.0 10.0 0.0
endloop
endfacet
facet normal 5.65954976936847e-17 -1.39053271015279e-16 -1.0
outer loop
vertex 1.48236190979496 0.0681483474218635 0.0
vertex 2.0 10.0 0.0
vertex 2.0 0.0 0.0
endloop
endfacet
facet normal 5.65954976936847e-17 -1.39053271015279e-16 -1.0
outer loop
vertex 2.0 0.0 0.0
vertex 2.0 10.0 0.0
vertex 3.86177143234622 0.0 0.0
endloop
endfacet
facet normal 5.65954976936847e-17 -1.39053271015279e-16 -1.0
outer loop
vertex 3.86177143234622 0.0 0.0
vertex 2.0 10.0 0.0
vertex 4.8011112605664 5.38822856765378 -5.63993296509579e-15
endloop
endfacet
facet normal 5.65954976936847e-17 -1.39053271015279e-16 -1.0
outer loop
vertex 4.8011112605664 5.38822856765378 -5.63993296509579e-15
vertex 2.0 10.0 0.0
vertex 4.95096189432334 5.75 -5.63993296509579e-15
endloop
endfacet
facet normal 5.65954976936847e-17 -1.39053271015279e-16 -1.0
outer loop
vertex 4.95096189432334 5.75 -5.63993296509579e-15
vertex 2.0 10.0 0.0
vertex 5.18933982822018 6.06066017177982 -5.63993296509579e-15
endloop
endfacet
facet normal 5.65954976936847e-17 -1.39053271015279e-16 -1.0
outer loop
vertex 5.18933982822018 6.06066017177982 -5.63993296509579e-15
vertex 2.0 10.0 0.0
vertex 5.5 6.29903810567666 -5.63993296509579e-15
endloop
endfacet
facet normal 5.65954976936847e-17 -1.39053271015279e-16 -1.0
outer loop
vertex 5.5 6.29903810567666 -5.63993296509579e-15
vertex 2.0 10.0 0.0
vertex 5.86177143234622 6.4488887394336 -5.63993296509579e-15
endloop
endfacet
facet normal 5.65954976936847e-17 -1.39053271015279e-16 -1.0
outer loop
vertex 5.86177143234622 6.4488887394336 -5.63993296509579e-15
vertex 2.0 10.0 0.0
vertex 6.25 6.5 -5.63993296509579e-15
endloop
endfacet
facet normal 5.65954976936847e-17 -1.39053271015279e-16 -1.0
outer loop
vertex 6.25 6.5 -5.63993296509579e-15
vertex 2.0 10.0 0.0
vertex 48.0 10.0 0.0
endloop
endfacet
facet normal 5.65954976936847e-17 -1.39053271015279e-16 -1.0
outer loop
vertex 3.86177143234622 0.0 0.0
vertex 4.8011112605664 5.38822856765378 -5.63993296509579e-15
vertex 4.75 5.0 -5.63993296509579e-15
endloop
endfacet
facet normal 5.65954976936847e-17 -1.39053271015279e-16 -1.0
outer loop
vertex 3.86177143234622 0.0 0.0
vertex 4.75 5.0 -5.63993296509579e-15
vertex 4.37940952255126 0.0681483474218635 -1.08166675433489e-16
endloop
endfacet
facet normal 5.65954976936847e-17 -1.39053271015279e-16 -1.0
outer loop
vertex 6.25 6.5 -5.63993296509579e-15
vertex 48.0 10.0 0.0
vertex 6.63822856765378 6.4488887394336 -5.63993296509579e-15
endloop
endfacet
facet normal 5.65954976936847e-17 -1.39053271015279e-16 -1.0
outer loop
vertex 6.63822856765378 6.4488887394336 -5.63993296509579e-15
vertex 48.0 10.0 0.0
vertex 7.0 6.29903810567666 -5.63993296509579e-15
endloop
endfacet
facet normal 5.65954976936847e-17 -1.39053271015279e-16 -1.0
outer loop
vertex 7.0 6.29903810567666 -5.63993296509579e-15
vertex 48.0 10.0 0.0
vertex 7.31066017177982 6.06066017177982 -5.63993296509579e-15
endloop
endfacet
facet normal 5.65954976936847e-17 -1.39053271015279e-16 -1.0
outer loop
vertex 7.31066017177982 6.06066017177982 -5.63993296509579e-15
vertex 48.0 10.0 0.0
vertex 7.54903810567666 5.75 -5.63993296509579e-15
endloop
endfacet
facet normal 5.65954976936847e-17 -1.39053271015279e-16 -1.0
outer loop
vertex 7.54903810567666 5.75 -5.63993296509579e-15
vertex 48.0 10.0 0.0
vertex 7.6988887394336 5.38822856765378 -5.63993296509579e-15
endloop
endfacet
facet normal 5.65954976936847e-17 -1.39053271015279e-16 -1.0
outer loop
vertex 7.6988887394336 5.38822856765378 -5.63993296509579e-15
vertex 48.0 10.0 0.0
vertex 7.75 5.0 -5.63993296509579e-15
endloop
endfacet
facet normal 5.65954976936847e-17 -1.39053271015279e-16 -1.0
outer loop
vertex 7.75 5.0 -5.63993296509579e-15
vertex 48.0 10.0 0.0
vertex 8.12059047744874 0.0681483474218635 -1.08166675433488e-16
endloop
endfacet
facet normal 5.65954976936847e-17 -1.39053271015279e-16 -1.0
outer loop
vertex 8.12059047744874 0.0681483474218635 -1.08166675433488e-16
vertex 48.0 10.0 0.0
vertex 8.63822856765378 0.0 0.0
endloop
endfacet
facet normal 5.65954976936847e-17 -1.39053271015279e-16 -1.0
outer loop
vertex 8.63822856765378 0.0 0.0
vertex 48.0 10.0 0.0
vertex 43.0 6.29903810567666 -2.11497486191092e-15
endloop
endfacet
facet normal 5.65954976936847e-17 -1.39053271015279e-16 -1.0
outer loop
vertex 8.63822856765378 0.0 0.0
vertex 43.0 6.29903810567666 -2.11497486191092e-15
vertex 42.6893398282202 6.06066017177982 -2.11497486191092e-15
endloop
endfacet
facet normal 5.65954976936847e-17 -1.39053271015279e-16 -1.0
outer loop
vertex 8.63822856765378 0.0 0.0
vertex 42.6893398282202 6.06066017177982 -2.11497486191092e-15
vertex 42.4509618943233 5.75 -2.11497486191092e-15
endloop
endfacet
facet normal 5.65954976936847e-17 -1.39053271015279e-16 -1.0
outer loop
vertex 8.63822856765378 0.0 0.0
vertex 42.4509618943233 5.75 -2.11497486191092e-15
vertex 42.3011112605664 5.38822856765378 -2.11497486191092e-15
endloop
endfacet
facet normal 5.65954976936847e-17 -1.39053271015279e-16 -1.0
outer loop
vertex 8.63822856765378 0.0 0.0
vertex 42.3011112605664 5.38822856765378 -2.11497486191092e-15
vertex 42.25 5.0 -2.11497486191092e-15
endloop
endfacet
facet normal 5.65954976936847e-17 -1.39053271015279e-16 -1.0
outer loop
vertex 43.0 6.29903810567666 -2.11497486191092e-15
vertex 48.0 10.0 0.0
vertex 43.3617714323462 6.4488887394336 -2.11497486191092e-15
endloop
endfacet
facet normal 5.65954976936847e-17 -1.39053271015279e-16 -1.0
outer loop
vertex 43.3617714323462 6.4488887394336 -2.11497486191092e-15
vertex 48.0 10.0 0.0
vertex 43.75 6.5 -2.11497486191092e-15
endloop
endfacet
facet normal 5.65954976936847e-17 -1.39053271015279e-16 -1.0
outer loop
vertex 43.75 6.5 -2.11497486191092e-15
vertex 48.0 10.0 0.0
vertex 44.1382285676538 6.4488887394336 -2.11497486191092e-15
endloop
endfacet
facet normal 5.65954976936847e-17 -1.39053271015279e-16 -1.0
outer loop
vertex 44.1382285676538 6.4488887394336 -2.11497486191092e-15
vertex 48.0 10.0 0.0
vertex 44.5 6.29903810567666 -2.11497486191092e-15
endloop
endfacet
facet normal 5.65954976936847e-17 -1.39053271015279e-16 -1.0
outer loop
vertex 44.5 6.29903810567666 -2.11497486191092e-15
vertex 48.0 10.0 0.0
vertex 44.8106601717798 6.06066017177982 -2.11497486191092e-15
endloop
endfacet
facet normal 5.65954976936847e-17 -1.39053271015279e-16 -1.0
outer loop
vertex 44.8106601717798 6.06066017177982 -2.11497486191092e-15
vertex 48.0 10.0 0.0
vertex 45.0490381056767 5.75 -2.11497486191092e-15
endloop
endfacet
facet normal 5.65954976936847e-17 -1.39053271015279e-16 -1.0
outer loop
vertex 45.0490381056767 5.75 -2.11497486191092e-15
vertex 48.0 10.0 0.0
vertex 45.1988887394336 5.38822856765378 -2.11497486191092e-15
endloop
endfacet
facet normal 5.65954976936847e-17 -1.39053271015279e-16 -1.0
outer loop
vertex 45.1988887394336 5.38822856765378 -2.11497486191092e-15
vertex 48.0 10.0 0.0
vertex 45.25 5.0 -2.11497486191092e-15
endloop
endfacet
facet normal 5.65954976936847e-17 -1.39053271015279e-16 -1.0
outer loop
vertex 45.25 5.0 -2.11497486191092e-15
vertex 48.0 10.0 0.0
vertex 48.0 0.0 0.0
endloop
endfacet
facet normal 5.65954976936847e-17 -1.39053271015279e-16 -1.0
outer loop
vertex 48.0 0.0 0.0
vertex 48.0 10.0 0.0
vertex 48.517638090205 0.0681483474218635 0.0
endloop
endfacet
facet normal 5.65954976936847e-17 -1.39053271015279e-16 -1.0
outer loop
vertex 48.517638090205 0.0681483474218635 0.0
vertex 48.0 10.0 0.0
vertex 48.517638090205 9.93185165257814 0.0
endloop
endfacet
facet normal 5.65954976936847e-17 -1.39053271015279e-16 -1.0
outer loop
vertex 48.517638090205 0.0681483474218635 0.0
vertex 48.517638090205 9.93185165257814 0.0
vertex 49.0 9.73205080756888 0.0
endloop
endfacet
facet normal 5.65954976936847e-17 -1.39053271015279e-16 -1.0
outer loop
vertex 48.517638090205 0.0681483474218635 0.0
vertex 49.0 9.73205080756888 0.0
vertex 49.0 0.267949192431123 0.0
endloop
endfacet
facet normal 5.65954976936847e-17 -1.39053271015279e-16 -1.0
outer loop
vertex 49.0 0.267949192431123 0.0
vertex 49.0 9.73205080756888 0.0
vertex 49.4142135623731 9.4142135623731 0.0
endloop
endfacet
facet normal 5.65954976936847e-17 -1.39053271015279e-16 -1.0
outer loop
vertex 49.0 0.267949192431123 0.0
vertex 49.4142135623731 9.4142135623731 0.0
vertex 49.4142135623731 0.585786437626905 0.0
endloop
endfacet
facet normal 5.65954976936847e-17 -1.39053271015279e-16 -1.0
outer loop
vertex 49.4142135623731 0.585786437626905 0.0
vertex 49.4142135623731 9.4142135623731 0.0
vertex 49.7320508075689 1.0 0.0
endloop
endfacet
facet normal 5.65954976936847e-17 -1.39053271015279e-16 -1.0
outer loop
vertex 49.7320508075689 1.0 0.0
vertex 49.4142135623731 9.4142135623731 0.0
vertex 49.7320508075689 9.0 0.0
endloop
endfacet
facet normal 5.65954976936847e-17 -1.39053271015279e-16 -1.0
outer loop
vertex 49.7320508075689 1.0 0.0
vertex 49.7320508075689 9.0 0.0
vertex 49.9318516525781 8.51763809020504 0.0
endloop
endfacet
facet normal 5.65954976936847e-17 -1.39053271015279e-16 -1.0
outer loop
vertex 49.7320508075689 1.0 0.0
vertex 49.9318516525781 8.51763809020504 0.0
vertex 49.9318516525781 1.48236190979496 0.0
endloop
endfacet
facet normal 5.65954976936847e-17 -1.39053271015279e-16 -1.0
outer loop
vertex 49.9318516525781 1.48236190979496 0.0
vertex 49.9318516525781 8.51763809020504 0.0
vertex 50.0 8.0 0.0
endloop
endfacet
facet normal 5.65954976936847e-17 -1.39053271015279e-16 -1.0
outer loop
vertex 49.9318516525781 1.48236190979496 0.0
vertex 50.0 8.0 0.0
vertex 50.0 2.0 0.0
endloop
endfacet
facet normal 5.65954976936847e-17 -1.39053271015279e-16 -1.0
outer loop
vertex 8.63822856765378 0.0 0.0
vertex 43.0 3.70096189432334 -2.11497486191092e-15
vertex 48.0 0.0 0.0
endloop
endfacet
facet normal 5.65954976936847e-17 -1.39053271015279e-16 -1.0
outer loop
vertex 43.0 3.70096189432334 -2.11497486191092e-15
vertex 8.63822856765378 0.0 0.0
vertex 42.6893398282202 3.93933982822018 -2.11497486191092e-15
endloop
endfacet
facet normal 5.65954976936847e-17 -1.39053271015279e-16 -1.0
outer loop
vertex 42.6893398282202 3.93933982822018 -2.11497486191092e-15
vertex 8.63822856765378 0.0 0.0
vertex 42.4509618943233 4.25 -2.11497486191092e-15
endloop
endfacet
facet normal 5.65954976936847e-17 -1.39053271015279e-16 -1.0
outer loop
vertex 42.4509618943233 4.25 -2.11497486191092e-15
vertex 8.63822856765378 0.0 0.0
vertex 42.3011112605664 4.61177143234622 -2.11497486191092e-15
endloop
endfacet
facet normal 5.65954976936847e-17 -1.39053271015279e-16 -1.0
outer loop
vertex 42.3011112605664 4.61177143234622 -2.11497486191092e-15
vertex 8.63822856765378 0.0 0.0
vertex 42.25 5.0 -2.11497486191092e-15
endloop
endfacet
facet normal 5.65954976936847e-17 -1.39053271015279e-16 -1.0
outer loop
vertex 48.0 0.0 0.0
vertex 43.0 3.70096189432334 -2.11497486191092e-15
vertex 43.3617714323462 3.5511112605664 -2.11497486191092e-15
endloop
endfacet
facet normal 5.65954976936847e-17 -1.39053271015279e-16 -1.0
outer loop
vertex 48.0 0.0 0.0
vertex 43.3617714323462 3.5511112605664 -2.11497486191092e-15
vertex 43.75 3.5 -2.11497486191092e-15
endloop
endfacet
facet normal 5.65954976936847e-17 -1.39053271015279e-16 -1.0
outer loop
vertex 48.0 0.0 0.0
vertex 43.75 3.5 -2.11497486191092e-15
vertex 44.1382285676538 3.5511112605664 -2.11497486191092e-15
endloop
endfacet
facet normal 5.65954976936847e-17 -1.39053271015279e-16 -1.0
outer loop
vertex 48.0 0.0 0.0
vertex 44.1382285676538 3.5511112605664 -2.11497486191092e-15
vertex 44.5 3.70096189432334 -2.11497486191092e-15
endloop
endfacet
facet normal 5.65954976936847e-17 -1.39053271015279e-16 -1.0
outer loop
vertex 48.0 0.0 0.0
vertex 44.5 3.70096189432334 -2.11497486191092e-15
vertex 44.8106601717798 3.93933982822018 -2.11497486191092e-15
endloop
endfacet
facet normal 5.65954976936847e-17 -1.39053271015279e-16 -1.0
outer loop
vertex 48.0 0.0 0.0
vertex 44.8106601717798 3.93933982822018 -2.11497486191092e-15
vertex 45.0490381056767 4.25 -2.11497486191092e-15
endloop
endfacet
facet normal 5.65954976936847e-17 -1.39053271015279e-16 -1.0
outer loop
vertex 48.0 0.0 0.0
vertex 45.0490381056767 4.25 -2.11497486191092e-15
vertex 45.1988887394336 4.61177143234622 -2.11497486191092e-15
endloop
endfacet
facet normal 5.65954976936847e-17 -1.39053271015279e-16 -1.0
outer loop
vertex 48.0 0.0 0.0
vertex 45.1988887394336 4.61177143234622 -2.11497486191092e-15
vertex 45.25 5.0 -2.11497486191092e-15
endloop
endfacet
facet normal 5.65954976936847e-17 -1.39053271015279e-16 -1.0
outer loop
vertex 7.0 3.70096189432334 -5.63993296509579e-15
vertex 6.63822856765378 2.0 -3.17444749654446e-15
vertex 6.63822856765378 3.5511112605664 -5.63993296509579e-15
endloop
endfacet
facet normal 5.65954976936847e-17 -1.39053271015279e-16 -1.0
outer loop
vertex 6.63822856765378 2.0 -3.17444749654446e-15
vertex 7.0 3.70096189432334 -5.63993296509579e-15
vertex 6.70637691507564 1.48236190979496 -2.35284002676074e-15
endloop
endfacet
facet normal 5.65954976936847e-17 -1.39053271015279e-16 -1.0
outer loop
vertex 6.70637691507564 1.48236190979496 -2.35284002676074e-15
vertex 7.0 3.70096189432334 -5.63993296509579e-15
vertex 6.9061777600849 1.0 -1.58722374827223e-15
endloop
endfacet
facet normal 5.65954976936847e-17 -1.39053271015279e-16 -1.0
outer loop
vertex 6.9061777600849 1.0 -1.58722374827223e-15
vertex 7.0 3.70096189432334 -5.63993296509579e-15
vertex 7.22401500528069 0.585786437626905 -9.29774145217214e-16
endloop
endfacet
facet normal 5.65954976936847e-17 -1.39053271015279e-16 -1.0
outer loop
vertex 7.22401500528069 0.585786437626905 -9.29774145217214e-16
vertex 7.0 3.70096189432334 -5.63993296509579e-15
vertex 7.31066017177982 3.93933982822018 -5.63993296509579e-15
endloop
endfacet
facet normal 5.65954976936847e-17 -1.39053271015279e-16 -1.0
outer loop
vertex 7.22401500528069 0.585786437626905 -9.29774145217214e-16
vertex 7.31066017177982 3.93933982822018 -5.63993296509579e-15
vertex 7.63822856765378 0.267949192431123 -4.25295321557044e-16
endloop
endfacet
facet normal 5.65954976936847e-17 -1.39053271015279e-16 -1.0
outer loop
vertex 7.63822856765378 0.267949192431123 -4.25295321557044e-16
vertex 7.31066017177982 3.93933982822018 -5.63993296509579e-15
vertex 7.54903810567666 4.25 -5.63993296509579e-15
endloop
endfacet
facet normal 5.65954976936847e-17 -1.39053271015279e-16 -1.0
outer loop
vertex 7.63822856765378 0.267949192431123 -4.25295321557044e-16
vertex 7.54903810567666 4.25 -5.63993296509579e-15
vertex 7.6988887394336 4.61177143234622 -5.63993296509579e-15
endloop
endfacet
facet normal 5.65954976936847e-17 -1.39053271015279e-16 -1.0
outer loop
vertex 7.63822856765378 0.267949192431123 -4.25295321557044e-16
vertex 7.6988887394336 4.61177143234622 -5.63993296509579e-15
vertex 8.12059047744874 0.0681483474218635 -1.08166675433488e-16
endloop
endfacet
facet normal 5.65954976936847e-17 -1.39053271015279e-16 -1.0
outer loop
vertex 8.12059047744874 0.0681483474218635 -1.08166675433488e-16
vertex 7.6988887394336 4.61177143234622 -5.63993296509579e-15
vertex 7.75 5.0 -5.63993296509579e-15
endloop
endfacet
facet normal 5.65954976936847e-17 -1.39053271015279e-16 -1.0
outer loop
vertex 4.75 5.0 -5.63993296509579e-15
vertex 4.86177143234622 0.267949192431123 -4.25295321557044e-16
vertex 4.37940952255126 0.0681483474218635 -1.08166675433489e-16
endloop
endfacet
facet normal 5.65954976936847e-17 -1.39053271015279e-16 -1.0
outer loop
vertex 4.86177143234622 0.267949192431123 -4.25295321557044e-16
vertex 4.75 5.0 -5.63993296509579e-15
vertex 4.8011112605664 4.61177143234622 -5.63993296509579e-15
endloop
endfacet
facet normal 5.65954976936847e-17 -1.39053271015279e-16 -1.0
outer loop
vertex 4.86177143234622 0.267949192431123 -4.25295321557044e-16
vertex 4.8011112605664 4.61177143234622 -5.63993296509579e-15
vertex 4.95096189432334 4.25 -5.63993296509579e-15
endloop
endfacet
facet normal 5.65954976936847e-17 -1.39053271015279e-16 -1.0
outer loop
vertex 4.86177143234622 0.267949192431123 -4.25295321557044e-16
vertex 4.95096189432334 4.25 -5.63993296509579e-15
vertex 5.27598499471931 0.585786437626905 -9.29774145217214e-16
endloop
endfacet
facet normal 5.65954976936847e-17 -1.39053271015279e-16 -1.0
outer loop
vertex 5.27598499471931 0.585786437626905 -9.29774145217214e-16
vertex 4.95096189432334 4.25 -5.63993296509579e-15
vertex 5.18933982822018 3.93933982822018 -5.63993296509579e-15
endloop
endfacet
facet normal 5.65954976936847e-17 -1.39053271015279e-16 -1.0
outer loop
vertex 5.27598499471931 0.585786437626905 -9.29774145217214e-16
vertex 5.18933982822018 3.93933982822018 -5.63993296509579e-15
vertex 5.5 3.70096189432334 -5.63993296509579e-15
endloop
endfacet
facet normal 5.65954976936847e-17 -1.39053271015279e-16 -1.0
outer loop
vertex 5.27598499471931 0.585786437626905 -9.29774145217214e-16
vertex 5.5 3.70096189432334 -5.63993296509579e-15
vertex 5.5938222399151 1.0 -1.58722374827223e-15
endloop
endfacet
facet normal 5.65954976936847e-17 -1.39053271015279e-16 -1.0
outer loop
vertex 5.5938222399151 1.0 -1.58722374827223e-15
vertex 5.5 3.70096189432334 -5.63993296509579e-15
vertex 5.86177143234622 3.5511112605664 -5.63993296509579e-15
endloop
endfacet
facet normal 5.65954976936847e-17 -1.39053271015279e-16 -1.0
outer loop
vertex 5.5938222399151 1.0 -1.58722374827223e-15
vertex 5.86177143234622 3.5511112605664 -5.63993296509579e-15
vertex 5.79362308492435 1.48236190979496 -2.35284002676074e-15
endloop
endfacet
facet normal 5.65954976936847e-17 -1.39053271015279e-16 -1.0
outer loop
vertex 5.79362308492435 1.48236190979496 -2.35284002676074e-15
vertex 5.86177143234622 3.5511112605664 -5.63993296509579e-15
vertex 5.86177143234622 2.0 -3.17444749654446e-15
endloop
endfacet
facet normal -0.0 -0.0 1.0
outer loop
vertex 4.86177143234622 0.267949192431123 5.0
vertex 4.75 5.0 5.0
vertex 4.37940952255126 0.0681483474218635 5.0
endloop
endfacet
facet normal -0.0 -0.0 1.0
outer loop
vertex 4.75 5.0 5.0
vertex 4.86177143234622 0.267949192431123 5.0
vertex 4.8011112605664 4.61177143234622 5.0
endloop
endfacet
facet normal -0.0 -0.0 1.0
outer loop
vertex 4.8011112605664 4.61177143234622 5.0
vertex 4.86177143234622 0.267949192431123 5.0
vertex 4.95096189432334 4.25 5.0
endloop
endfacet
facet normal -0.0 -0.0 1.0
outer loop
vertex 4.95096189432334 4.25 5.0
vertex 4.86177143234622 0.267949192431123 5.0
vertex 5.27598499471931 0.585786437626905 5.0
endloop
endfacet
facet normal -0.0 -0.0 1.0
outer loop
vertex 4.95096189432334 4.25 5.0
vertex 5.27598499471931 0.585786437626905 5.0
vertex 5.18933982822018 3.93933982822018 5.0
endloop
endfacet
facet normal -0.0 -0.0 1.0
outer loop
vertex 5.18933982822018 3.93933982822018 5.0
vertex 5.27598499471931 0.585786437626905 5.0
vertex 5.5 3.70096189432334 5.0
endloop
endfacet
facet normal -0.0 -0.0 1.0
outer loop
vertex 5.5 3.70096189432334 5.0
vertex 5.27598499471931 0.585786437626905 5.0
vertex 5.5938222399151 1.0 5.0
endloop
endfacet
facet normal -0.0 -0.0 1.0
outer loop
vertex 5.5 3.70096189432334 5.0
vertex 5.5938222399151 1.0 5.0
vertex 5.86177143234622 3.5511112605664 5.0
endloop
endfacet
facet normal -0.0 -0.0 1.0
outer loop
vertex 5.86177143234622 3.5511112605664 5.0
vertex 5.5938222399151 1.0 5.0
vertex 5.79362308492435 1.48236190979496 5.0
endloop
endfacet
facet normal -0.0 -0.0 1.0
outer loop
vertex 5.86177143234622 3.5511112605664 5.0
vertex 5.79362308492435 1.48236190979496 5.0
vertex 5.86177143234622 2.0 5.0
endloop
endfacet
facet normal -0.0 -0.0 1.0
outer loop
vertex 0.0681483474218635 1.48236190979496 5.0
vertex 0.0 8.0 5.0
vertex 0.0 2.0 5.0
endloop
endfacet
facet normal -0.0 -0.0 1.0
outer loop
vertex 0.0 8.0 5.0
vertex 0.0681483474218635 1.48236190979496 5.0
vertex 0.0681483474218635 8.51763809020504 5.0
endloop
endfacet
facet normal -0.0 -0.0 1.0
outer loop
vertex 0.0681483474218635 8.51763809020504 5.0
vertex 0.0681483474218635 1.48236190979496 5.0
vertex 0.267949192431123 1.0 5.0
endloop
endfacet
facet normal -0.0 -0.0 1.0
outer loop
vertex 0.0681483474218635 8.51763809020504 5.0
vertex 0.267949192431123 1.0 5.0
vertex 0.267949192431123 9.0 5.0
endloop
endfacet
facet normal -0.0 -0.0 1.0
outer loop
vertex 0.267949192431123 9.0 5.0
vertex 0.267949192431123 1.0 5.0
vertex 0.585786437626905 9.4142135623731 5.0
endloop
endfacet
facet normal -0.0 -0.0 1.0
outer loop
vertex 0.585786437626905 9.4142135623731 5.0
vertex 0.267949192431123 1.0 5.0
vertex 0.585786437626905 0.585786437626905 5.0
endloop
endfacet
facet normal -0.0 -0.0 1.0
outer loop
vertex 0.585786437626905 9.4142135623731 5.0
vertex 0.585786437626905 0.585786437626905 5.0
vertex 1.0 9.73205080756888 5.0
endloop
endfacet
facet normal -0.0 -0.0 1.0
outer loop
vertex 1.0 9.73205080756888 5.0
vertex 0.585786437626905 0.585786437626905 5.0
vertex 1.0 0.267949192431123 5.0
endloop
endfacet
facet normal -0.0 -0.0 1.0
outer loop
vertex 1.0 9.73205080756888 5.0
vertex 1.0 0.267949192431123 5.0
vertex 1.48236190979496 9.93185165257814 5.0
endloop
endfacet
facet normal -0.0 -0.0 1.0
outer loop
vertex 1.48236190979496 9.93185165257814 5.0
vertex 1.0 0.267949192431123 5.0
vertex 1.48236190979496 0.0681483474218635 5.0
endloop
endfacet
facet normal -0.0 -0.0 1.0
outer loop
vertex 1.48236190979496 9.93185165257814 5.0
vertex 1.48236190979496 0.0681483474218635 5.0
vertex 2.0 10.0 5.0
endloop
endfacet
facet normal -0.0 -0.0 1.0
outer loop
vertex 2.0 10.0 5.0
vertex 1.48236190979496 0.0681483474218635 5.0
vertex 2.0 0.0 5.0
endloop
endfacet
facet normal -0.0 -0.0 1.0
outer loop
vertex 2.0 10.0 5.0
vertex 2.0 0.0 5.0
vertex 6.25 10.0 5.0
endloop
endfacet
facet normal -0.0 -0.0 1.0
outer loop
vertex 6.25 10.0 5.0
vertex 2.0 0.0 5.0
vertex 4.8011112605664 5.38822856765378 5.0
endloop
endfacet
facet normal -0.0 -0.0 1.0
outer loop
vertex 4.8011112605664 5.38822856765378 5.0
vertex 2.0 0.0 5.0
vertex 3.86177143234622 0.0 5.0
endloop
endfacet
facet normal -0.0 -0.0 1.0
outer loop
vertex 4.8011112605664 5.38822856765378 5.0
vertex 3.86177143234622 0.0 5.0
vertex 4.75 5.0 5.0
endloop
endfacet
facet normal -0.0 -0.0 1.0
outer loop
vertex 4.75 5.0 5.0
vertex 3.86177143234622 0.0 5.0
vertex 4.37940952255126 0.0681483474218635 5.0
endloop
endfacet
facet normal -0.0 -0.0 1.0
outer loop
vertex 6.25 10.0 5.0
vertex 4.8011112605664 5.38822856765378 5.0
vertex 4.95096189432334 5.75 5.0
endloop
endfacet
facet normal -0.0 -0.0 1.0
outer loop
vertex 6.25 10.0 5.0
vertex 4.95096189432334 5.75 5.0
vertex 5.18933982822018 6.06066017177982 5.0
endloop
endfacet
facet normal -0.0 -0.0 1.0
outer loop
vertex 6.25 10.0 5.0
vertex 5.18933982822018 6.06066017177982 5.0
vertex 5.5 6.29903810567666 5.0
endloop
endfacet
facet normal -0.0 -0.0 1.0
outer loop
vertex 6.25 10.0 5.0
vertex 5.5 6.29903810567666 5.0
vertex 5.86177143234622 6.4488887394336 5.0
endloop
endfacet
facet normal -0.0 -0.0 1.0
outer loop
vertex 6.25 10.0 5.0
vertex 5.86177143234622 6.4488887394336 5.0
vertex 6.25 6.5 5.0
endloop
endfacet
facet normal -0.0 -0.0 1.0
outer loop
vertex 43.75 0.0 5.0
vertex 40.625 2.5 5.0
vertex 40.625 0.0 5.0
endloop
endfacet
facet normal -0.0 -0.0 1.0
outer loop
vertex 40.625 2.5 5.0
vertex 43.75 0.0 5.0
vertex 40.625 7.5 5.0
endloop
endfacet
facet normal -0.0 -0.0 1.0
outer loop
vertex 40.625 7.5 5.0
vertex 43.75 0.0 5.0
vertex 42.3011112605664 4.61177143234622 5.0
endloop
endfacet
facet normal -0.0 -0.0 1.0
outer loop
vertex 40.625 7.5 5.0
vertex 42.3011112605664 4.61177143234622 5.0
vertex 40.625 10.0 5.0
endloop
endfacet
facet normal -0.0 -0.0 1.0
outer loop
vertex 40.625 10.0 5.0
vertex 42.3011112605664 4.61177143234622 5.0
vertex 42.25 5.0 5.0
endloop
endfacet
facet normal -0.0 -0.0 1.0
outer loop
vertex 42.3011112605664 4.61177143234622 5.0
vertex 43.75 0.0 5.0
vertex 42.4509618943233 4.25 5.0
endloop
endfacet
facet normal -0.0 -0.0 1.0
outer loop
vertex 42.4509618943233 4.25 5.0
vertex 43.75 0.0 5.0
vertex 42.6893398282202 3.93933982822018 5.0
endloop
endfacet
facet normal -0.0 -0.0 1.0
outer loop
vertex 42.6893398282202 3.93933982822018 5.0
vertex 43.75 0.0 5.0
vertex 43.0 3.70096189432334 5.0
endloop
endfacet
facet normal -0.0 -0.0 1.0
outer loop
vertex 43.0 3.70096189432334 5.0
vertex 43.75 0.0 5.0
vertex 43.3617714323462 3.5511112605664 5.0
endloop
endfacet
facet normal -0.0 -0.0 1.0
outer loop
vertex 43.3617714323462 3.5511112605664 5.0
vertex 43.75 0.0 5.0
vertex 43.75 3.5 5.0
endloop
endfacet
facet normal -0.0 -0.0 1.0
outer loop
vertex 40.625 10.0 5.0
vertex 42.3011112605664 5.38822856765378 5.0
vertex 43.75 10.0 5.0
endloop
endfacet
facet normal -0.0 -0.0 1.0
outer loop
vertex 42.3011112605664 5.38822856765378 5.0
vertex 40.625 10.0 5.0
vertex 42.25 5.0 5.0
endloop
endfacet
facet normal -0.0 -0.0 1.0
outer loop
vertex 43.75 10.0 5.0
vertex 42.3011112605664 5.38822856765378 5.0
vertex 42.4509618943233 5.75 5.0
endloop
endfacet
facet normal -0.0 -0.0 1.0
outer loop
vertex 43.75 10.0 5.0
vertex 42.4509618943233 5.75 5.0
vertex 42.6893398282202 6.06066017177982 5.0
endloop
endfacet
facet normal -0.0 -0.0 1.0
outer loop
vertex 43.75 10.0 5.0
vertex 42.6893398282202 6.06066017177982 5.0
vertex 43.0 6.29903810567666 5.0
endloop
endfacet
facet normal -0.0 -0.0 1.0
outer loop
vertex 43.75 10.0 5.0
vertex 43.0 6.29903810567666 5.0
vertex 43.3617714323462 6.4488887394336 5.0
endloop
endfacet
facet normal -0.0 -0.0 1.0
outer loop
vertex 43.75 10.0 5.0
vertex 43.3617714323462 6.4488887394336 5.0
vertex 43.75 6.5 5.0
endloop
endfacet
facet normal -0.0 -0.0 1.0
outer loop
vertex 6.70637691507564 1.48236190979496 5.0
vertex 6.63822856765378 3.5511112605664 5.0
vertex 6.63822856765378 2.0 5.0
endloop
endfacet
facet normal -0.0 -0.0 1.0
outer loop
vertex 6.63822856765378 3.5511112605664 5.0
vertex 6.70637691507564 1.48236190979496 5.0
vertex 7.0 3.70096189432334 5.0
endloop
endfacet
facet normal -0.0 -0.0 1.0
outer loop
vertex 7.0 3.70096189432334 5.0
vertex 6.70637691507564 1.48236190979496 5.0
vertex 6.9061777600849 1.0 5.0
endloop
endfacet
facet normal -0.0 -0.0 1.0
outer loop
vertex 7.0 3.70096189432334 5.0
vertex 6.9061777600849 1.0 5.0
vertex 7.22401500528069 0.585786437626905 5.0
endloop
endfacet
facet normal -0.0 -0.0 1.0
outer loop
vertex 7.0 3.70096189432334 5.0
vertex 7.22401500528069 0.585786437626905 5.0
vertex 7.31066017177982 3.93933982822018 5.0
endloop
endfacet
facet normal -0.0 -0.0 1.0
outer loop
vertex 7.31066017177982 3.93933982822018 5.0
vertex 7.22401500528069 0.585786437626905 5.0
vertex 7.63822856765378 0.267949192431123 5.0
endloop
endfacet
facet normal -0.0 -0.0 1.0
outer loop
vertex 7.31066017177982 3.93933982822018 5.0
vertex 7.63822856765378 0.267949192431123 5.0
vertex 7.54903810567666 4.25 5.0
endloop
endfacet
facet normal -0.0 -0.0 1.0
outer loop
vertex 7.54903810567666 4.25 5.0
vertex 7.63822856765378 0.267949192431123 5.0
vertex 7.6988887394336 4.61177143234622 5.0
endloop
endfacet
facet normal -0.0 -0.0 1.0
outer loop
vertex 7.6988887394336 4.61177143234622 5.0
vertex 7.63822856765378 0.267949192431123 5.0
vertex 8.12059047744874 0.0681483474218635 5.0
endloop
endfacet
facet normal -0.0 -0.0 1.0
outer loop
vertex 7.6988887394336 4.61177143234622 5.0
vertex 8.12059047744874 0.0681483474218635 5.0
vertex 7.75 5.0 5.0
endloop
endfacet
facet normal -0.0 -0.0 1.0
outer loop
vertex 6.63822856765378 6.4488887394336 5.0
vertex 6.25 10.0 5.0
vertex 6.25 6.5 5.0
endloop
endfacet
facet normal -0.0 -0.0 1.0
outer loop
vertex 6.25 10.0 5.0
vertex 6.63822856765378 6.4488887394336 5.0
vertex 9.375 10.0 5.0
endloop
endfacet
facet normal -0.0 -0.0 1.0
outer loop
vertex 9.375 10.0 5.0
vertex 6.63822856765378 6.4488887394336 5.0
vertex 7.0 6.29903810567666 5.0
endloop
endfacet
facet normal -0.0 -0.0 1.0
outer loop
vertex 9.375 10.0 5.0
vertex 7.0 6.29903810567666 5.0
vertex 7.31066017177982 6.06066017177982 5.0
endloop
endfacet
facet normal -0.0 -0.0 1.0
outer loop
vertex 9.375 10.0 5.0
vertex 7.31066017177982 6.06066017177982 5.0
vertex 7.54903810567666 5.75 5.0
endloop
endfacet
facet normal -0.0 -0.0 1.0
outer loop
vertex 9.375 10.0 5.0
vertex 7.54903810567666 5.75 5.0
vertex 7.6988887394336 5.38822856765378 5.0
endloop
endfacet
facet normal -0.0 -0.0 1.0
outer loop
vertex 9.375 10.0 5.0
vertex 7.6988887394336 5.38822856765378 5.0
vertex 7.75 5.0 5.0
endloop
endfacet
facet normal -0.0 -0.0 1.0
outer loop
vertex 9.375 10.0 5.0
vertex 7.75 5.0 5.0
vertex 8.12059047744874 0.0681483474218635 5.0
endloop
endfacet
facet normal -0.0 -0.0 1.0
outer loop
vertex 9.375 10.0 5.0
vertex 8.12059047744874 0.0681483474218635 5.0
vertex 8.63822856765378 0.0 5.0
endloop
endfacet
facet normal -0.0 -0.0 1.0
outer loop
vertex 9.375 10.0 5.0
vertex 8.63822856765378 0.0 5.0
vertex 9.375 0.0 5.0
endloop
endfacet
facet normal -0.0 -0.0 1.0
outer loop
vertex 9.375 10.0 5.0
vertex 9.375 0.0 5.0
vertex 9.375 2.5 5.0
endloop
endfacet
facet normal -0.0 -0.0 1.0
outer loop
vertex 9.375 10.0 5.0
vertex 9.375 2.5 5.0
vertex 9.375 7.5 5.0
endloop
endfacet
facet normal -0.0 -0.0 1.0
outer loop
vertex 40.625 0.0 5.0
vertex 9.375 2.5 5.0
vertex 9.375 0.0 5.0
endloop
endfacet
facet normal -0.0 -0.0 1.0
outer loop
vertex 9.375 2.5 5.0
vertex 40.625 0.0 5.0
vertex 40.625 2.5 5.0
endloop
endfacet
facet normal 0.0 0.0 1.0
outer loop
vertex 40.625 2.5 3.0
vertex 9.375 7.5 3.0
vertex 9.375 2.5 3.0
endloop
endfacet
facet normal 0.0 0.0 1.0
outer loop
vertex 9.375 7.5 3.0
vertex 40.625 2.5 3.0
vertex 40.625 7.5 3.0
endloop
endfacet
facet normal -0.0 -1.0 -0.0
outer loop
vertex 40.625 7.5 5.0
vertex 9.375 7.5 3.0
vertex 40.625 7.5 3.0
endloop
endfacet
facet normal -0.0 -1.0 -0.0
outer loop
vertex 9.375 7.5 3.0
vertex 40.625 7.5 5.0
vertex 9.375 7.5 5.0
endloop
endfacet
facet normal 1.0 0.0 0.0
outer loop
vertex 9.375 7.5 3.0
vertex 9.375 2.5 5.0
vertex 9.375 2.5 3.0
endloop
endfacet
facet normal 1.0 0.0 0.0
outer loop
vertex 9.375 2.5 5.0
vertex 9.375 7.5 3.0
vertex 9.375 7.5 5.0
endloop
endfacet
facet normal -0.0 1.0 -0.0
outer loop
vertex 9.375 2.5 5.0
vertex 40.625 2.5 3.0
vertex 9.375 2.5 3.0
endloop
endfacet
facet normal -0.0 1.0 -0.0
outer loop
vertex 40.625 2.5 3.0
vertex 9.375 2.5 5.0
vertex 40.625 2.5 5.0
endloop
endfacet
facet normal -1.0 0.0 -0.0
outer loop
vertex 40.625 7.5 5.0
vertex 40.625 2.5 3.0
vertex 40.625 2.5 5.0
endloop
endfacet
facet normal -1.0 0.0 -0.0
outer loop
vertex 40.625 2.5 3.0
vertex 40.625 7.5 5.0
vertex 40.625 7.5 3.0
endloop
endfacet
endsolid Seilspanner
